<svg id="logo-instagram" xmlns="http://www.w3.org/2000/svg" width="43.343" height="43.343" viewBox="0 0 43.343 43.343">
  <path id="Subtraction_1" data-name="Subtraction 1" d="M30.7,43.343H12.642a12.562,12.562,0,0,1-7.056-2.167,12.8,12.8,0,0,1-3.42-3.42A12.688,12.688,0,0,1,1,35.61,12.527,12.527,0,0,1,0,30.7V12.642A12.562,12.562,0,0,1,2.167,5.586a12.8,12.8,0,0,1,3.42-3.42A12.687,12.687,0,0,1,7.733,1a12.526,12.526,0,0,1,4.909-1H30.7a12.562,12.562,0,0,1,7.056,2.167,12.8,12.8,0,0,1,3.42,3.42,12.688,12.688,0,0,1,1.169,2.147,12.526,12.526,0,0,1,1,4.909V30.7a12.562,12.562,0,0,1-2.167,7.056,12.8,12.8,0,0,1-3.42,3.42,12.687,12.687,0,0,1-2.147,1.169,12.527,12.527,0,0,1-4.909,1Zm-9.029-33.8A12.124,12.124,0,1,0,33.8,21.672,12.137,12.137,0,0,0,21.672,9.548ZM33.41,7.224a2.709,2.709,0,1,0,0,5.418h.006a2.686,2.686,0,0,0,1.911-.792A2.711,2.711,0,0,0,33.41,7.224ZM21.672,29.754a8.045,8.045,0,0,1-4.519-1.38,8.106,8.106,0,0,1-2.928-3.556,8.07,8.07,0,0,1,.748-7.663,8.115,8.115,0,0,1,3.555-2.928,8.065,8.065,0,0,1,7.664.743,8.106,8.106,0,0,1,2.928,3.556,8.072,8.072,0,0,1-.745,7.665,8.107,8.107,0,0,1-3.556,2.928A8.032,8.032,0,0,1,21.672,29.754Z" transform="translate(0 0)" fill="#00daa0"/>
</svg>
