<svg xmlns="http://www.w3.org/2000/svg" width="48.761" height="39.337" viewBox="0 0 48.761 39.337">
  <path id="logo-twitter" d="M64.761,68.661a20.363,20.363,0,0,1-5.745,1.567,9.973,9.973,0,0,0,4.4-5.491,19.99,19.99,0,0,1-6.355,2.407,10.019,10.019,0,0,0-17.307,6.781,9.626,9.626,0,0,0,.258,2.264A28.433,28.433,0,0,1,19.392,65.813,9.863,9.863,0,0,0,22.5,79.069a9.841,9.841,0,0,1-4.549-1.239v.123a9.952,9.952,0,0,0,8.025,9.732,10.156,10.156,0,0,1-2.635.348,9.506,9.506,0,0,1-1.88-.184,10.009,10.009,0,0,0,9.351,6.894,20.166,20.166,0,0,1-12.426,4.251A20.468,20.468,0,0,1,16,98.85a28.137,28.137,0,0,0,15.313,4.487c18.424,0,28.489-15.13,28.489-28.253,0-.43-.011-.861-.031-1.281A20.25,20.25,0,0,0,64.761,68.661Z" transform="translate(-16 -64)" fill="#00daa0"/>
</svg>
