<svg xmlns="http://www.w3.org/2000/svg" width="43.343" height="43.343" viewBox="0 0 43.343 43.343">
  <path id="logo-whatsapp" d="M69.028,38.3A21.541,21.541,0,0,0,35.062,64.216L32,75.342l11.44-2.987a21.635,21.635,0,0,0,10.313,2.612h.009A21.562,21.562,0,0,0,75.343,53.49,21.3,21.3,0,0,0,69.028,38.3ZM64.6,57.709c-.539-.269-3.193-1.567-3.684-1.746s-.854-.269-1.213.269-1.393,1.741-1.708,2.1-.629.4-1.168.133a14.75,14.75,0,0,1-4.337-2.663,16.184,16.184,0,0,1-3-3.717c-.314-.537-.034-.828.236-1.1.243-.241.539-.627.809-.94a3.634,3.634,0,0,0,.539-.9.986.986,0,0,0-.045-.939c-.135-.268-1.213-2.91-1.662-3.985-.438-1.047-.882-.9-1.213-.921-.314-.015-.677-.019-1.034-.019a1.986,1.986,0,0,0-1.438.671,6.013,6.013,0,0,0-1.888,4.477c0,2.639,1.935,5.193,2.2,5.551s3.8,5.779,9.211,8.1a31.245,31.245,0,0,0,3.075,1.13,7.424,7.424,0,0,0,3.4.213c1.036-.154,3.193-1.3,3.641-2.552a4.48,4.48,0,0,0,.314-2.551C65.5,58.113,65.137,57.977,64.6,57.709Z" transform="translate(-32 -31.999)" fill="#00daa0" fill-rule="evenodd"/>
</svg>
